<svg width="313" height="338" viewBox="0 0 313 338" fill="none" xmlns="http://www.w3.org/2000/svg">
<path d="M0.922852 10C0.922852 4.47715 5.4 0 10.9229 0H271.66V337.039H10.9229C5.40001 337.039 0.922852 332.561 0.922852 327.039V10Z" fill="#FFD2E7"/>
<g clip-path="url(#clip0_56_160)">
<path d="M229.823 191.962C222.823 159.662 268.023 137.162 246.823 103.462C223.423 66.2617 180.823 48.2617 137.523 52.5617C126.623 53.6617 116.323 55.8617 107.723 59.0617C77.1233 70.8617 52.2233 94.9617 40.3233 125.462C31.3233 148.662 27.2233 173.762 36.8233 197.362C41.0233 207.662 50.0233 216.162 52.8233 226.762C56.9233 242.062 52.9233 258.962 58.3233 273.962C66.3233 296.262 93.1233 300.862 113.623 296.662C129.823 293.362 144.723 283.162 161.323 281.862C180.523 280.262 194.923 290.862 211.423 298.262C237.823 310.062 279.223 307.662 288.323 274.462C291.823 261.662 288.323 247.162 279.423 237.362C265.223 221.662 234.723 214.862 229.823 191.962Z" fill="url(#paint0_linear_56_160)"/>
<path d="M51.8232 189.262C46.5232 187.162 52.4232 197.262 51.4232 196.162C50.4232 195.062 39.6232 174.962 36.1232 178.562C32.7232 182.162 38.6232 187.962 37.8232 187.562C37.0232 187.162 26.1232 174.562 25.8232 181.062C25.4232 187.562 35.9232 193.662 35.9232 193.662C35.9232 193.662 26.8232 191.562 30.8232 195.562C34.8232 199.562 44.0232 202.262 44.0232 202.262C44.0232 202.262 34.5232 201.262 38.7232 204.562C42.9232 207.762 51.9232 209.762 51.9232 209.762C51.9232 209.762 43.3232 209.962 47.7232 211.462C52.1232 212.962 65.3232 216.762 65.3232 216.762C65.3232 216.762 57.1232 191.362 51.8232 189.262Z" fill="url(#paint1_linear_56_160)"/>
<path d="M88.5232 196.962C86.6232 197.762 89.5232 195.062 90.0232 188.362C90.6232 181.662 78.7232 200.562 77.4232 201.562C76.1232 202.562 77.8232 200.562 76.6232 195.262C75.5232 189.962 64.8232 217.262 64.8232 217.262C64.8232 217.262 84.9232 211.762 88.9232 210.362C92.9232 209.062 87.0232 207.162 87.0232 207.162C87.0232 207.162 96.0232 207.762 101.123 205.662C106.323 203.562 95.6232 202.062 94.4232 201.062C93.3232 200.062 99.7232 199.762 104.123 191.862C108.523 183.962 90.4232 196.162 88.5232 196.962Z" fill="url(#paint2_linear_56_160)"/>
<path d="M89.2231 181.662C87.5231 182.462 94.2231 173.862 94.7231 168.062C95.3231 162.362 82.7231 180.062 81.5231 182.362C80.4231 184.662 82.5231 178.362 80.7231 172.662C79.0231 166.962 73.4231 189.262 72.5231 191.362C71.5231 193.462 72.3231 189.262 69.8231 183.362C67.3231 177.462 65.0231 216.262 65.2231 217.162C65.2231 217.162 74.2231 208.762 76.9231 203.762C79.6231 198.762 75.8231 199.762 75.8231 199.762C75.8231 199.762 82.1231 196.662 85.5231 193.862C88.9231 190.962 82.3231 189.262 82.4231 188.662C82.6231 188.062 92.9231 184.662 96.5231 180.462C100.323 176.262 90.9231 180.862 89.2231 181.662Z" fill="url(#paint3_linear_56_160)"/>
<path d="M62.723 196.162C62.723 196.162 64.823 189.462 65.223 184.662C65.623 179.862 60.823 183.162 60.823 183.162C60.823 183.162 61.923 174.362 60.423 167.862C58.923 161.362 57.923 173.962 57.323 174.762C56.723 175.562 55.823 171.562 50.423 165.362C45.123 159.262 54.223 179.462 54.823 182.362C55.423 185.262 53.723 180.862 47.523 178.962C41.423 177.062 55.723 198.262 55.723 199.162C55.723 200.162 54.723 197.662 50.023 196.062C45.223 194.562 64.323 215.162 65.123 216.662C65.123 216.662 66.623 203.062 67.223 197.762C67.823 192.562 62.723 196.162 62.723 196.162Z" fill="url(#paint4_linear_56_160)"/>
<path d="M62.8232 187.362C62.8232 187.362 62.9232 187.362 62.8232 187.362C63.0232 187.562 63.0232 187.562 62.8232 187.362Z" fill="url(#paint5_linear_56_160)"/>
<path d="M70.123 163.362C70.123 163.362 69.523 155.762 65.523 152.062C61.523 148.462 64.223 171.162 64.023 172.262C63.823 173.362 63.023 169.562 58.723 168.062C54.423 166.562 62.323 186.062 62.923 187.262C63.023 187.462 63.023 187.562 62.923 187.362C62.923 187.362 62.923 187.362 62.923 187.262C62.523 186.762 61.223 185.162 58.223 185.062C54.023 184.862 65.123 216.362 65.123 216.962C65.123 216.962 72.523 208.562 73.323 204.762C74.123 200.962 68.923 203.462 68.923 203.462C68.923 203.462 72.923 199.862 75.823 191.962C78.723 184.162 69.923 189.862 69.723 189.262C69.523 188.662 76.223 184.062 77.923 174.562C79.223 167.262 74.223 170.762 71.723 172.862C70.923 173.562 70.423 173.962 70.423 173.962C70.423 173.962 70.923 173.462 71.723 172.862C73.923 170.762 78.223 165.662 79.223 158.162C80.423 148.062 70.123 163.362 70.123 163.362Z" fill="url(#paint6_linear_56_160)"/>
<path d="M71.6232 172.862C70.8232 173.462 70.3232 173.962 70.3232 173.962C70.3232 173.962 70.8232 173.662 71.6232 172.862Z" fill="url(#paint7_linear_56_160)"/>
<path d="M54.623 256.962H77.823L83.323 220.062H49.123L54.623 256.962Z" fill="url(#paint8_linear_56_160)"/>
<path d="M86.2231 213.862H46.2231C45.4231 213.862 44.7231 214.562 44.7231 215.362V220.162C44.7231 220.962 45.4231 221.662 46.2231 221.662H86.2231C87.0231 221.662 87.7231 220.962 87.7231 220.162V215.362C87.7231 214.562 87.0231 213.862 86.2231 213.862Z" fill="url(#paint9_linear_56_160)"/>
<path d="M302.323 124.862L290.323 121.062C289.223 120.762 288.023 121.362 287.723 122.462L262.623 200.862C262.323 201.962 262.823 203.162 263.923 203.462L276.323 207.562C277.423 207.962 278.623 207.362 278.923 206.162L303.623 127.362C304.023 126.362 303.423 125.262 302.323 124.862Z" fill="#84D2E6"/>
<path d="M287.723 122.462L262.623 200.862C262.323 201.962 262.823 203.162 263.923 203.462L270.523 205.662L296.923 123.162L290.223 121.062C289.223 120.762 288.123 121.362 287.723 122.462Z" fill="#97DEEF"/>
<path d="M292.923 130.262L287.723 128.562C287.523 128.462 287.323 128.562 287.323 128.762C287.223 128.962 287.323 129.162 287.523 129.162L292.723 130.862C292.923 130.962 293.123 130.862 293.123 130.662C293.123 130.562 293.023 130.362 292.923 130.262Z" fill="white"/>
<path d="M289.923 131.262L287.123 130.362C286.923 130.262 286.723 130.362 286.723 130.562C286.623 130.762 286.723 130.962 286.923 130.962L289.723 131.862C289.923 131.962 290.123 131.862 290.123 131.662C290.223 131.462 290.123 131.262 289.923 131.262Z" fill="white"/>
<path d="M289.423 132.862L286.623 131.962C286.423 131.862 286.223 131.962 286.223 132.162C286.123 132.362 286.223 132.562 286.423 132.562L289.223 133.462C289.423 133.562 289.623 133.462 289.623 133.262C289.723 133.162 289.623 132.962 289.423 132.862Z" fill="white"/>
<path d="M288.823 134.662L286.023 133.762C285.823 133.662 285.623 133.762 285.623 133.962C285.523 134.162 285.623 134.362 285.823 134.362L288.623 135.262C288.823 135.362 289.023 135.262 289.023 135.062C289.123 134.962 289.023 134.762 288.823 134.662Z" fill="white"/>
<path d="M288.323 136.262L285.523 135.362C285.323 135.262 285.123 135.362 285.123 135.562C285.023 135.762 285.123 135.962 285.323 135.962L288.123 136.862C288.323 136.962 288.523 136.862 288.523 136.662C288.623 136.562 288.523 136.362 288.323 136.262Z" fill="white"/>
<path d="M290.123 138.762L284.923 137.062C284.723 136.962 284.523 137.062 284.523 137.262C284.423 137.462 284.523 137.662 284.723 137.662L289.923 139.362C290.123 139.462 290.323 139.362 290.323 139.162C290.423 139.062 290.323 138.862 290.123 138.762Z" fill="white"/>
<path d="M287.223 139.662L284.423 138.762C284.223 138.662 284.023 138.762 284.023 138.962C283.923 139.162 284.023 139.362 284.223 139.362L287.023 140.262C287.223 140.362 287.423 140.262 287.423 140.062C287.523 139.962 287.423 139.762 287.223 139.662Z" fill="white"/>
<path d="M286.723 141.362L283.923 140.462C283.723 140.362 283.523 140.462 283.523 140.662C283.423 140.862 283.523 141.062 283.723 141.062L286.523 141.962C286.723 142.062 286.923 141.962 286.923 141.762C287.023 141.662 286.823 141.462 286.723 141.362Z" fill="white"/>
<path d="M286.123 143.162L283.323 142.262C283.123 142.162 282.923 142.262 282.923 142.462C282.823 142.662 282.923 142.862 283.123 142.862L285.923 143.762C286.123 143.862 286.323 143.762 286.323 143.562C286.423 143.462 286.323 143.262 286.123 143.162Z" fill="white"/>
<path d="M285.623 144.762L282.823 143.862C282.623 143.762 282.423 143.862 282.423 144.062C282.323 144.262 282.423 144.462 282.623 144.462L285.423 145.362C285.623 145.462 285.823 145.362 285.823 145.162C285.923 144.962 285.823 144.762 285.623 144.762Z" fill="white"/>
<path d="M287.423 147.262L282.223 145.562C282.023 145.462 281.823 145.562 281.823 145.762C281.723 145.962 281.823 146.162 282.023 146.162L287.223 147.862C287.423 147.962 287.623 147.862 287.623 147.662C287.723 147.562 287.623 147.362 287.423 147.262Z" fill="white"/>
<path d="M284.523 148.162L281.723 147.262C281.523 147.162 281.323 147.262 281.323 147.462C281.223 147.662 281.323 147.862 281.523 147.862L284.323 148.762C284.523 148.862 284.723 148.762 284.723 148.562C284.823 148.462 284.723 148.262 284.523 148.162Z" fill="white"/>
<path d="M283.923 149.862L281.123 148.962C280.923 148.862 280.723 148.962 280.723 149.162C280.623 149.362 280.723 149.562 280.923 149.562L283.723 150.462C283.923 150.562 284.123 150.462 284.123 150.262C284.223 150.162 284.123 149.962 283.923 149.862Z" fill="white"/>
<path d="M283.423 151.662L280.623 150.762C280.423 150.662 280.223 150.762 280.223 150.962C280.123 151.162 280.223 151.362 280.423 151.362L283.223 152.262C283.423 152.362 283.623 152.262 283.623 152.062C283.723 151.962 283.623 151.762 283.423 151.662Z" fill="white"/>
<path d="M282.923 153.262L280.123 152.362C279.923 152.262 279.723 152.362 279.723 152.562C279.623 152.762 279.723 152.962 279.923 152.962L282.723 153.862C282.923 153.962 283.123 153.862 283.123 153.662C283.223 153.462 283.023 153.262 282.923 153.262Z" fill="white"/>
<path d="M284.723 155.762L279.523 154.062C279.323 153.962 279.123 154.062 279.123 154.262C279.023 154.462 279.123 154.662 279.323 154.662L284.523 156.362C284.723 156.462 284.923 156.362 284.923 156.162C285.023 156.062 284.923 155.862 284.723 155.762Z" fill="white"/>
<path d="M281.823 156.662L279.023 155.762C278.823 155.662 278.623 155.762 278.623 155.962C278.523 156.162 278.623 156.362 278.823 156.362L281.623 157.262C281.823 157.362 282.023 157.262 282.023 157.062C282.023 156.962 281.923 156.762 281.823 156.662Z" fill="white"/>
<path d="M281.223 158.362L278.423 157.462C278.223 157.362 278.023 157.462 278.023 157.662C277.923 157.862 278.023 158.062 278.223 158.062L281.023 158.962C281.223 159.062 281.423 158.962 281.423 158.762C281.523 158.662 281.423 158.462 281.223 158.362Z" fill="white"/>
<path d="M280.623 160.162L277.823 159.262C277.623 159.162 277.423 159.262 277.423 159.462C277.323 159.662 277.423 159.862 277.623 159.862L280.423 160.762C280.623 160.862 280.823 160.762 280.823 160.562C280.923 160.362 280.823 160.162 280.623 160.162Z" fill="white"/>
<path d="M280.123 161.762L277.323 160.862C277.123 160.762 276.923 160.862 276.923 161.062C276.823 161.262 276.923 161.462 277.123 161.462L279.923 162.362C280.123 162.462 280.323 162.362 280.323 162.162C280.423 161.962 280.323 161.762 280.123 161.762Z" fill="white"/>
<path d="M282.023 164.262L276.823 162.562C276.623 162.462 276.423 162.562 276.423 162.762C276.323 162.962 276.423 163.162 276.623 163.162L281.823 164.862C282.023 164.962 282.223 164.862 282.223 164.662C282.323 164.462 282.223 164.262 282.023 164.262Z" fill="white"/>
<path d="M279.023 165.162L276.223 164.262C276.023 164.162 275.823 164.262 275.823 164.462C275.723 164.662 275.823 164.862 276.023 164.862L278.823 165.762C279.023 165.862 279.223 165.762 279.223 165.562C279.323 165.462 279.223 165.262 279.023 165.162Z" fill="white"/>
<path d="M278.523 166.862L275.723 165.962C275.523 165.862 275.323 165.962 275.323 166.162C275.223 166.362 275.323 166.562 275.523 166.562L278.323 167.462C278.523 167.562 278.723 167.462 278.723 167.262C278.823 167.062 278.723 166.862 278.523 166.862Z" fill="white"/>
<path d="M277.923 168.662L275.123 167.762C274.923 167.662 274.723 167.762 274.723 167.962C274.623 168.162 274.723 168.362 274.923 168.362L277.723 169.262C277.923 169.362 278.123 169.262 278.123 169.062C278.223 168.862 278.123 168.662 277.923 168.662Z" fill="white"/>
<path d="M277.423 170.262L274.623 169.362C274.423 169.262 274.223 169.362 274.223 169.562C274.123 169.762 274.223 169.962 274.423 169.962L277.223 170.862C277.423 170.962 277.623 170.862 277.623 170.662C277.723 170.462 277.623 170.262 277.423 170.262Z" fill="white"/>
<path d="M279.223 172.762L274.023 171.062C273.823 170.962 273.623 171.062 273.623 171.262C273.523 171.462 273.623 171.662 273.823 171.662L279.023 173.362C279.223 173.462 279.423 173.362 279.423 173.162C279.523 172.962 279.423 172.762 279.223 172.762Z" fill="white"/>
<path d="M276.323 173.662L273.523 172.762C273.323 172.662 273.123 172.762 273.123 172.962C273.023 173.162 273.123 173.362 273.323 173.362L276.123 174.262C276.323 174.362 276.523 174.262 276.523 174.062C276.623 173.862 276.523 173.762 276.323 173.662Z" fill="white"/>
<path d="M275.823 175.362L273.023 174.462C272.823 174.362 272.623 174.462 272.623 174.662C272.523 174.862 272.623 175.062 272.823 175.062L275.623 175.962C275.823 176.062 276.023 175.962 276.023 175.762C276.123 175.562 276.023 175.362 275.823 175.362Z" fill="white"/>
<path d="M275.223 177.162L272.423 176.262C272.223 176.162 272.023 176.262 272.023 176.462C271.923 176.662 272.023 176.862 272.223 176.862L275.023 177.762C275.223 177.862 275.423 177.762 275.423 177.562C275.523 177.362 275.423 177.162 275.223 177.162Z" fill="white"/>
<path d="M274.723 178.662L271.923 177.762C271.723 177.662 271.523 177.762 271.523 177.962C271.423 178.162 271.523 178.362 271.723 178.362L274.523 179.262C274.723 179.362 274.923 179.262 274.923 179.062C275.023 178.962 274.923 178.762 274.723 178.662Z" fill="white"/>
<path d="M276.523 181.262L271.323 179.562C271.123 179.462 270.923 179.562 270.923 179.762C270.823 179.962 270.923 180.162 271.123 180.162L276.323 181.862C276.523 181.962 276.723 181.862 276.723 181.662C276.823 181.462 276.723 181.262 276.523 181.262Z" fill="white"/>
<path d="M273.623 182.162L270.823 181.262C270.623 181.162 270.423 181.262 270.423 181.462C270.323 181.662 270.423 181.862 270.623 181.862L273.423 182.762C273.623 182.862 273.823 182.762 273.823 182.562C273.923 182.362 273.823 182.162 273.623 182.162Z" fill="white"/>
<path d="M273.123 183.862L270.323 182.962C270.123 182.862 269.923 182.962 269.923 183.162C269.823 183.362 269.923 183.562 270.123 183.562L272.923 184.462C273.123 184.562 273.323 184.462 273.323 184.262C273.323 184.062 273.223 183.862 273.123 183.862Z" fill="white"/>
<path d="M272.523 185.562L269.723 184.662C269.523 184.562 269.323 184.662 269.323 184.862C269.223 185.062 269.323 185.262 269.523 185.262L272.323 186.162C272.523 186.262 272.723 186.162 272.723 185.962C272.823 185.862 272.723 185.662 272.523 185.562Z" fill="white"/>
<path d="M272.023 187.162L269.223 186.262C269.023 186.162 268.823 186.262 268.823 186.462C268.723 186.662 268.823 186.862 269.023 186.862L271.823 187.762C272.023 187.862 272.223 187.762 272.223 187.562C272.323 187.462 272.223 187.262 272.023 187.162Z" fill="white"/>
<path d="M273.823 189.662L268.623 187.962C268.423 187.862 268.223 187.962 268.223 188.162C268.123 188.362 268.223 188.562 268.423 188.562L273.623 190.262C273.823 190.362 274.023 190.262 274.023 190.062C274.123 189.962 274.023 189.762 273.823 189.662Z" fill="white"/>
<path d="M270.923 190.662L268.123 189.762C267.923 189.662 267.723 189.762 267.723 189.962C267.623 190.162 267.723 190.362 267.923 190.362L270.723 191.262C270.923 191.362 271.123 191.262 271.123 191.062C271.123 190.862 271.123 190.662 270.923 190.662Z" fill="white"/>
<path d="M270.323 192.262L267.523 191.362C267.323 191.262 267.123 191.362 267.123 191.562C267.023 191.762 267.123 191.962 267.323 191.962L270.123 192.862C270.323 192.962 270.523 192.862 270.523 192.662C270.623 192.562 270.523 192.362 270.323 192.262Z" fill="white"/>
<path d="M269.823 194.062L267.023 193.162C266.823 193.062 266.623 193.162 266.623 193.362C266.623 193.562 266.623 193.762 266.823 193.762L269.623 194.662C269.823 194.762 270.023 194.662 270.023 194.462C270.023 194.362 269.923 194.162 269.823 194.062Z" fill="white"/>
<path d="M269.323 195.662L266.523 194.762C266.323 194.662 266.123 194.762 266.123 194.962C266.023 195.162 266.123 195.362 266.323 195.362L269.123 196.262C269.323 196.362 269.523 196.262 269.523 196.062C269.523 195.962 269.423 195.762 269.323 195.662Z" fill="white"/>
<path d="M296.322 141.462L293.722 141.162C292.922 141.062 292.222 141.662 292.122 142.462L291.422 149.662L296.922 150.162L297.622 142.962C297.722 142.262 297.122 141.462 296.322 141.462Z" fill="#F2EC22"/>
<path d="M288.123 211.862L293.723 198.662L285.223 197.862L288.123 211.862Z" fill="#A7A7A7"/>
<path d="M288.522 210.762L293.722 198.662L289.822 198.262L288.522 210.762Z" fill="#DBD8D5"/>
<path d="M289.123 209.362L293.723 198.662L290.223 198.362L289.123 209.362Z" fill="#7C7B79"/>
<path d="M297.123 148.962L291.523 148.362C290.723 148.262 289.923 148.862 289.923 149.762L285.223 197.362C285.123 198.162 285.723 198.962 286.623 198.962L292.223 199.562C293.023 199.662 293.823 199.062 293.823 198.162L298.523 150.562C298.623 149.762 298.023 149.062 297.123 148.962Z" fill="#23538C"/>
<path d="M289.823 149.762L285.123 197.362C285.023 198.162 285.623 198.962 286.523 198.962L289.223 199.262L294.223 148.662L291.523 148.362C290.723 148.262 289.923 148.962 289.823 149.762Z" fill="#144270"/>
<path d="M301.122 153.462L289.322 152.262C289.122 152.262 288.822 152.462 288.822 152.662L288.422 157.062C288.422 157.262 288.622 157.562 288.822 157.562L299.022 158.562C299.222 158.562 299.422 158.762 299.422 159.062L298.522 168.062C298.522 168.262 298.322 168.462 298.022 168.462H297.822C297.522 168.462 297.222 168.762 297.322 169.062L298.722 173.862C298.822 174.062 298.922 174.162 299.122 174.162C299.322 174.162 299.622 173.962 299.622 173.762L301.122 158.762L301.622 153.962C301.522 153.662 301.422 153.462 301.122 153.462Z" fill="#F2EC22"/>
<path d="M288.122 211.862L289.122 209.362L287.522 209.262L288.122 211.862Z" fill="#0E2142"/>
<path d="M293.923 196.462L285.323 195.662C285.023 195.662 284.823 195.862 284.823 196.062L284.623 198.562C284.623 198.862 284.823 199.062 285.023 199.062L293.623 199.862C293.923 199.862 294.123 199.662 294.123 199.462L294.323 196.962C294.423 196.662 294.223 196.462 293.923 196.462Z" fill="#0E2142"/>
<path d="M274.123 161.162L264.823 163.562L275.123 203.062C275.223 203.562 275.523 204.062 275.823 204.462L282.023 211.562C282.223 211.762 282.523 211.662 282.523 211.462L284.423 202.262C284.523 201.762 284.523 201.262 284.423 200.662L274.123 161.162Z" fill="#FCD7A3"/>
<path d="M282.123 211.562C282.323 211.762 282.623 211.662 282.623 211.462L283.323 207.962L279.723 208.862L282.123 211.562Z" fill="#0F2145"/>
<path d="M271.023 161.962L267.923 162.762L278.223 202.362C278.423 203.262 279.323 203.762 280.123 203.462C281.023 203.262 281.523 202.362 281.223 201.562L271.023 161.962Z" fill="white"/>
<path d="M274.123 161.162L271.023 161.962L281.323 201.562C281.523 202.462 282.423 202.962 283.223 202.662C284.123 202.462 284.623 201.562 284.323 200.762L274.123 161.162Z" fill="#F23436"/>
<path d="M267.923 162.762L264.823 163.562L275.123 203.162C275.323 204.062 276.223 204.562 277.023 204.262C277.923 204.062 278.423 203.162 278.123 202.362L267.923 162.762Z" fill="#F23436"/>
<path d="M267.723 149.262L264.623 150.062C262.923 150.462 261.923 152.262 262.323 153.962L264.523 162.262L273.823 159.862L271.623 151.562C271.123 149.862 269.423 148.762 267.723 149.262Z" fill="#FE6F71"/>
<path d="M273.353 157.986L264.069 160.428L265.112 164.393L274.396 161.952L273.353 157.986Z" fill="#0F2145"/>
<path d="M253.523 251.562C253.523 254.562 255.923 256.962 258.923 256.962H298.323C301.323 256.962 303.723 254.562 303.723 251.562V184.562H253.423V251.562H253.523Z" fill="url(#paint10_linear_56_160)"/>
<path d="M279.123 256.962H298.423C301.423 256.962 303.823 254.562 303.823 251.562V184.562H279.123V256.962Z" fill="#D3D3D3"/>
<path d="M293.823 256.962H298.423C301.423 256.962 303.823 254.562 303.823 251.562V184.562H293.823V256.962Z" fill="#D3D3D3"/>
<path d="M303.823 183.262H253.523C253.023 183.262 252.623 183.662 252.623 184.162V187.862C252.623 188.362 253.023 188.762 253.523 188.762H303.823C304.323 188.762 304.723 188.362 304.723 187.862V184.162C304.723 183.662 304.323 183.262 303.823 183.262Z" fill="white"/>
<path d="M147.623 207.062L138.223 251.762H213.223L203.823 207.062H147.623Z" fill="#DBD9DD"/>
<path d="M258.123 82.4617H93.3233C89.2233 82.4617 85.9233 85.7617 85.9233 89.8617V211.962C85.9233 216.062 89.2233 219.362 93.3233 219.362H258.223C262.323 219.362 265.623 216.062 265.623 211.962V89.8617C265.523 85.7617 262.223 82.4617 258.123 82.4617Z" fill="url(#paint11_linear_56_160)"/>
<path d="M85.9233 211.862C85.9233 215.962 89.2233 219.262 93.3233 219.262H258.223C262.323 219.262 265.623 215.962 265.623 211.862V198.862H85.9233V211.862Z" fill="white"/>
<path d="M261.324 92.2617H90.1235V191.862H261.324V92.2617Z" fill="url(#paint12_linear_56_160)"/>
<path d="M261.324 191.862V92.2617H90.1235L261.324 191.862Z" fill="#D7F4F9"/>
<path d="M221.924 246.462H129.524C126.324 246.462 123.624 249.062 123.624 252.362C123.624 255.562 126.224 258.262 129.524 258.262H221.924C225.124 258.262 227.824 255.662 227.824 252.362C227.724 249.062 225.124 246.462 221.924 246.462Z" fill="white"/>
<path d="M128.523 159.162H84.8232C82.3232 159.162 80.3232 161.162 80.3232 163.662V253.762C80.3232 256.262 82.3232 258.262 84.8232 258.262H128.523C131.023 258.262 133.023 256.262 133.023 253.762V163.662C133.023 161.162 130.923 159.162 128.523 159.162Z" fill="url(#paint13_linear_56_160)"/>
<path d="M130.223 165.062H83.0234V246.462H130.223V165.062Z" fill="url(#paint14_linear_56_160)"/>
<path d="M130.223 246.562V165.062H83.0234L130.223 246.562Z" fill="#D7F4F9"/>
<path d="M106.623 230.462C118.663 230.462 128.423 220.701 128.423 208.662C128.423 196.622 118.663 186.862 106.623 186.862C94.5834 186.862 84.8232 196.622 84.8232 208.662C84.8232 220.701 94.5834 230.462 106.623 230.462Z" fill="white"/>
<path d="M95.5234 196.962V221.062L113.323 220.862L117.723 218.162V193.362H99.1234C97.1234 193.362 95.5234 194.962 95.5234 196.962Z" fill="#27BFE2"/>
<path d="M95.5234 196.962V221.062H99.2234V193.362H99.0234C97.1234 193.362 95.5234 194.962 95.5234 196.962Z" fill="#0CACC6"/>
<path d="M95.5234 221.062C95.5234 222.662 96.8234 223.962 98.4234 223.962H117.723V223.562C116.423 223.462 115.423 222.362 115.423 221.062C115.423 219.762 116.423 218.662 117.723 218.562V218.162H98.4234C96.8234 218.162 95.5234 219.462 95.5234 221.062Z" fill="#028B99"/>
<path d="M95.9233 221.062C95.9233 222.462 97.0233 223.562 98.4233 223.562H117.723C116.423 223.462 115.423 222.362 115.423 221.062C115.423 219.762 116.423 218.662 117.723 218.562H98.4233C97.0233 218.562 95.9233 219.662 95.9233 221.062Z" fill="#FCFCD4"/>
<path d="M132.623 252.662C132.623 255.162 134.623 257.062 137.023 257.062H166.423V256.462C164.423 256.262 162.923 254.662 162.923 252.562C162.923 250.462 164.423 248.862 166.423 248.662V248.062H137.023C134.523 248.262 132.623 250.162 132.623 252.662Z" fill="#84D2E6"/>
<path d="M133.123 252.662C133.123 254.762 134.823 256.562 137.023 256.562H166.423C164.423 256.362 162.923 254.762 162.923 252.662C162.923 250.562 164.423 248.962 166.423 248.762H137.023C134.923 248.762 133.123 250.562 133.123 252.662Z" fill="#FCFCD4"/>
<path d="M134.923 243.862C134.923 246.362 136.923 248.262 139.323 248.262H168.723V247.662C166.723 247.462 165.223 245.862 165.223 243.762C165.223 241.762 166.723 240.062 168.723 239.862V239.262H139.323C136.923 239.462 134.923 241.462 134.923 243.862Z" fill="#DD4536"/>
<path d="M135.523 243.862C135.523 245.962 137.223 247.762 139.423 247.762H168.823C166.823 247.562 165.323 245.962 165.323 243.862C165.323 241.862 166.823 240.162 168.823 239.962H139.423C137.223 239.962 135.523 241.762 135.523 243.862Z" fill="#FCFCD4"/>
<path d="M138.623 235.062C138.623 237.562 140.623 239.462 143.023 239.462H172.423V238.962C170.423 238.762 168.923 237.162 168.923 235.062C168.923 233.062 170.423 231.362 172.423 231.162V230.562H143.023C140.623 230.662 138.623 232.662 138.623 235.062Z" fill="#2BB673"/>
<path d="M139.223 235.062C139.223 237.162 140.923 238.962 143.123 238.962H172.523C170.523 238.762 169.023 237.162 169.023 235.062C169.023 233.062 170.523 231.362 172.523 231.162H143.123C140.923 231.262 139.223 232.962 139.223 235.062Z" fill="#FCFCD4"/>
<path d="M134.723 226.362C134.723 228.862 136.723 230.762 139.123 230.762H168.523V230.162C166.523 229.962 165.023 228.362 165.023 226.262C165.023 224.162 166.523 222.562 168.523 222.362V221.762H139.123C136.723 221.862 134.723 223.862 134.723 226.362Z" fill="#1C75BC"/>
<path d="M135.323 226.362C135.323 228.462 137.023 230.262 139.223 230.262H168.623C166.623 230.062 165.123 228.462 165.123 226.362C165.123 224.262 166.623 222.662 168.623 222.462H139.223C137.023 222.462 135.323 224.162 135.323 226.362Z" fill="#FCFCD4"/>
<path d="M217.823 154.862C217.423 155.962 215.923 161.762 218.123 162.262C220.423 162.862 221.423 162.962 224.623 161.262C227.823 159.562 232.023 138.362 232.023 138.362C232.023 138.362 227.423 138.962 224.523 141.562C221.623 144.262 218.223 153.862 217.823 154.862Z" fill="#14035B"/>
<path d="M234.223 256.062C234.323 254.662 233.523 251.062 233.523 251.062H228.523C228.523 251.062 220.223 254.462 218.723 254.962C217.223 255.462 217.023 256.762 216.923 257.662C216.823 258.462 223.023 259.262 224.123 259.062C225.323 258.862 226.823 257.862 227.023 257.962C227.323 258.062 227.623 258.762 227.623 258.762C227.623 258.762 233.623 258.762 234.023 258.562C234.523 258.362 234.123 257.362 234.223 256.062Z" fill="#0E0E30"/>
<path d="M247.723 257.462C247.823 256.062 247.023 252.462 247.023 252.462H242.023C242.023 252.462 233.723 255.862 232.223 256.362C230.723 256.862 230.523 258.162 230.423 259.062C230.323 259.862 236.523 260.662 237.623 260.462C238.823 260.262 240.323 259.262 240.523 259.362C240.823 259.462 241.123 260.162 241.123 260.162C241.123 260.162 247.123 260.162 247.523 259.962C247.923 259.762 247.623 258.762 247.723 257.462Z" fill="#0E0E30"/>
<path d="M244.923 214.662C245.123 210.062 246.823 183.862 246.523 180.662C246.223 177.462 224.223 179.262 224.223 179.262C224.223 179.262 220.423 209.162 219.923 216.762C219.423 224.362 225.923 251.962 226.523 252.162C227.123 252.362 234.123 252.062 234.123 251.362C234.123 250.662 228.923 221.462 229.323 218.362C229.823 215.262 234.223 191.762 234.223 191.762C234.223 191.762 235.623 215.862 235.523 217.562C235.423 219.262 238.423 253.362 239.223 253.562C240.023 253.762 247.323 253.562 247.523 253.062C247.623 252.562 244.723 219.262 244.923 214.662Z" fill="url(#paint15_linear_56_160)"/>
<path d="M233.923 192.962C234.023 192.462 234.023 192.062 234.123 191.762C234.123 191.762 230.923 192.762 230.323 196.062C229.623 199.362 228.123 213.662 227.023 215.762C225.923 217.862 222.723 218.662 223.523 219.862C224.323 221.062 225.723 220.362 226.823 224.662C227.923 229.062 231.323 245.262 230.723 247.862C230.423 249.362 229.023 250.962 228.223 252.262C230.523 252.262 234.023 251.962 234.023 251.362C234.023 250.662 228.823 221.462 229.223 218.362C229.623 215.662 233.023 197.762 233.923 192.962Z" fill="#14035B"/>
<path d="M244.923 214.662C245.123 210.062 246.823 183.862 246.523 180.662C246.223 177.462 224.223 179.262 224.223 179.262C224.223 179.262 223.923 181.862 223.423 185.762C225.123 187.062 227.323 188.362 229.623 188.362C234.523 188.362 240.923 186.562 241.823 191.562C242.723 196.562 240.423 213.062 241.123 219.962C241.923 226.862 244.523 246.562 244.323 249.862C244.123 252.062 241.723 252.862 241.223 253.762C243.623 253.762 247.423 253.562 247.523 253.162C247.623 252.562 244.723 219.262 244.923 214.662Z" fill="#D3D3D3"/>
<path d="M240.223 137.862C236.823 137.062 233.423 137.962 230.823 139.062C228.023 140.262 226.023 142.962 225.623 145.962C225.423 147.662 225.123 149.962 224.623 152.662C223.423 159.762 223.123 181.262 223.123 181.262C223.123 181.262 223.023 183.362 232.423 184.362C241.823 185.362 247.723 182.662 247.723 182.662C247.723 182.662 247.523 166.462 248.523 157.662C249.823 145.862 247.423 139.562 240.223 137.862Z" fill="url(#paint16_linear_56_160)"/>
<path d="M238.023 137.862C235.923 137.662 234.023 138.062 232.423 138.862C232.423 138.862 230.523 139.862 230.323 141.162C230.123 142.462 231.223 143.462 233.323 143.462C235.323 143.562 236.723 143.562 238.323 142.562C239.923 141.562 240.923 139.562 240.823 138.962C240.523 138.462 240.123 138.062 238.023 137.862Z" fill="#230482"/>
<path d="M223.223 145.662C221.923 145.662 220.523 146.362 220.223 147.662C219.823 148.962 218.823 151.862 218.823 151.862C218.823 151.862 221.923 152.962 222.123 152.862C222.323 152.762 222.723 150.762 222.823 150.462C222.923 150.162 223.223 150.162 224.123 149.762C225.123 149.362 225.023 148.462 225.023 148.462C225.023 148.462 226.123 148.962 226.723 148.662C227.223 148.362 224.623 145.662 223.223 145.662Z" fill="#FFC2A9"/>
<path d="M219.023 150.762C219.023 150.762 216.923 152.962 216.123 156.662C215.423 160.362 217.523 163.362 220.323 162.462C223.123 161.562 223.423 152.662 222.923 152.262C222.423 151.862 219.023 150.762 219.023 150.762Z" fill="url(#paint17_linear_56_160)"/>
<path d="M226.223 145.262C226.123 144.862 225.723 144.562 225.323 144.662L221.623 145.462C221.223 145.562 220.923 145.962 221.023 146.362L222.723 154.162C222.823 154.562 223.223 154.862 223.623 154.762L227.323 153.962C227.723 153.862 228.023 153.462 227.923 153.062L226.223 145.262Z" fill="#0E0E30"/>
<path d="M229.023 152.562C228.323 151.262 228.023 148.262 227.423 148.362C226.823 148.462 227.423 151.262 227.123 151.462C226.823 151.662 225.223 151.162 224.123 150.362C223.023 149.562 221.823 147.962 221.723 148.662C221.623 149.262 222.723 150.662 222.923 150.962L223.023 151.062C223.023 151.062 223.023 151.062 222.923 150.962C222.723 150.662 221.823 149.762 221.723 150.262C221.523 150.862 222.723 152.162 222.723 152.162C222.723 152.162 221.523 151.162 221.523 151.662C221.523 152.262 222.523 153.362 222.523 153.362C222.523 153.362 221.823 152.662 221.823 153.162C221.823 153.662 222.423 154.562 224.023 155.262C225.723 155.962 227.423 155.462 228.423 156.062C229.423 156.662 230.323 157.362 230.423 157.262C230.623 157.162 231.623 154.562 231.623 154.562C231.623 154.562 229.723 153.862 229.023 152.562Z" fill="#FFC2A9"/>
<path d="M222.923 150.962C223.023 151.062 223.023 151.062 222.923 150.962C223.023 151.062 223.023 151.062 222.923 150.962Z" fill="#FFC2A9"/>
<path d="M240.023 137.762C238.223 138.562 240.923 141.262 241.923 146.562C242.723 150.662 244.223 156.662 242.123 157.062C240.023 157.462 231.123 153.462 231.123 153.462L228.923 157.662C228.923 157.662 243.323 166.562 246.223 165.462C249.123 164.362 250.623 151.162 249.623 145.762C248.223 138.462 240.023 137.762 240.023 137.762Z" fill="url(#paint18_linear_56_160)"/>
<path d="M240.023 137.762C239.723 137.862 239.523 138.062 239.523 138.362C241.623 139.162 245.523 140.962 246.523 143.262C247.823 146.462 247.823 153.562 247.523 157.962C247.223 162.262 245.223 162.762 240.723 161.462C237.223 160.462 231.723 157.862 229.623 156.762L229.123 157.762C229.123 157.762 243.523 166.662 246.423 165.562C249.323 164.462 250.823 151.262 249.823 145.862C248.223 138.462 240.023 137.762 240.023 137.762Z" fill="#D3D3D3"/>
<path d="M236.823 132.562L233.823 135.562C233.823 135.562 234.223 137.462 233.523 138.562C232.823 139.562 230.423 140.562 231.123 141.762C231.823 142.962 236.123 143.362 237.723 142.062C239.323 140.762 240.823 139.562 240.123 138.762C238.023 136.462 236.823 132.562 236.823 132.562Z" fill="#EFAB92"/>
<path d="M237.523 132.562L233.823 135.562C233.823 135.562 234.223 137.462 233.523 138.562C233.223 139.062 232.423 139.562 231.823 140.062C232.523 140.362 233.523 140.662 234.723 140.462C236.823 140.062 237.323 140.862 237.823 141.962C239.323 140.762 240.723 139.662 240.223 138.762C238.523 135.662 237.523 132.562 237.523 132.562Z" fill="#EF9D84"/>
<path d="M229.923 121.862C226.323 122.862 225.323 125.562 225.223 127.562C225.223 127.562 225.323 130.262 226.023 131.162C226.723 132.062 227.223 132.762 227.423 133.762C227.623 134.762 228.823 138.262 232.023 139.862C235.223 141.362 237.723 136.162 238.523 134.162C239.223 132.062 238.923 126.962 237.723 124.562C236.623 122.162 233.523 120.862 229.923 121.862Z" fill="#FFC2A9"/>
<path d="M229.923 121.862C226.323 122.862 225.323 125.562 225.223 127.562C225.223 127.562 225.223 128.562 225.423 129.562C227.323 128.962 230.423 128.162 231.423 129.162C232.923 130.662 232.723 132.462 233.623 132.762C234.423 133.162 235.723 133.662 235.923 135.162C236.123 136.462 235.523 139.062 232.723 140.062C235.623 140.762 237.923 136.062 238.623 134.162C239.323 132.062 239.023 126.962 237.823 124.562C236.623 122.162 233.523 120.862 229.923 121.862Z" fill="#EFAB92"/>
<path d="M238.023 121.762C238.023 121.762 236.523 118.162 232.823 118.362C229.123 118.662 224.723 122.162 223.123 122.062C221.523 121.962 220.023 121.562 220.423 122.562C220.823 123.562 221.523 123.862 221.423 124.162C221.223 124.462 219.823 123.962 220.523 125.062C221.323 126.162 222.123 126.362 222.123 126.362C222.123 126.362 221.623 126.862 221.823 127.562C222.023 128.162 222.223 128.862 224.223 128.562C226.223 128.262 227.723 128.062 231.223 126.462C231.223 126.462 232.323 128.262 233.923 128.562C235.523 128.862 235.523 130.962 235.923 130.362C236.323 129.762 236.223 127.062 237.423 127.862C238.623 128.662 238.223 131.162 237.723 131.662C237.723 131.662 238.723 133.162 239.623 132.562C240.523 131.962 240.723 127.462 240.323 125.262C239.723 123.162 238.023 121.762 238.023 121.762Z" fill="#0E0E30"/>
<path d="M203.123 251.362C199.623 250.862 199.023 251.162 198.523 249.862C198.023 248.462 191.723 249.462 191.723 249.462C191.723 249.462 191.123 251.762 191.023 253.762C190.923 255.762 191.223 256.362 191.223 256.362C191.223 256.362 196.423 257.262 201.623 256.662C206.823 256.162 208.023 256.162 208.223 255.762C208.423 255.362 208.423 254.562 208.123 254.162C207.723 253.662 206.623 251.862 203.123 251.362Z" fill="#0E0E30"/>
<path d="M168.823 182.462C165.323 182.562 164.523 184.262 164.323 188.062C164.223 191.862 165.123 198.362 165.123 198.362L172.623 197.562C172.623 197.562 172.623 191.962 172.023 187.662C171.423 183.362 168.823 182.462 168.823 182.462Z" fill="#191F54"/>
<path d="M168.323 210.662C164.023 209.662 156.523 209.762 153.923 216.162C151.423 222.562 158.223 223.162 161.523 224.062C164.823 224.962 182.123 224.962 183.623 225.062C185.123 225.162 185.823 231.062 187.123 234.462C188.423 237.862 191.023 250.862 191.023 250.862L198.623 249.962C199.223 247.262 195.623 216.462 193.223 214.362C191.023 212.462 168.323 210.662 168.323 210.662Z" fill="url(#paint19_linear_56_160)"/>
<path d="M168.323 210.662C166.023 210.162 163.023 209.862 160.123 210.762C161.423 211.262 163.623 211.662 167.823 211.462C167.823 211.462 185.723 212.662 188.123 214.462C190.523 216.262 192.423 219.862 192.923 224.462C193.323 228.162 196.023 245.962 196.323 250.362L198.723 250.162C199.323 247.462 197.523 218.462 193.323 214.562C188.623 210.062 168.323 210.662 168.323 210.662Z" fill="#D3D3D3"/>
<path d="M181.423 256.062C177.923 255.162 177.123 254.962 176.723 253.562C176.323 252.162 170.023 252.362 170.023 252.362C170.023 252.362 169.123 254.562 168.823 256.462C168.523 258.362 168.723 259.062 168.723 259.062C168.723 259.062 173.823 260.462 179.023 260.562C184.223 260.562 185.423 260.362 185.623 259.862C185.823 259.362 186.023 259.062 185.723 258.662C185.423 258.262 184.823 256.962 181.423 256.062Z" fill="#0E0E30"/>
<path d="M152.723 211.762C151.323 211.762 150.023 212.462 149.223 213.662C147.623 215.862 145.923 219.662 149.223 221.962C154.323 225.362 174.523 224.362 174.723 225.562C174.923 226.762 169.123 253.562 169.123 253.562C169.123 253.562 175.223 254.662 176.623 254.162C178.023 253.662 187.723 222.862 186.223 217.062C185.123 212.162 160.123 211.762 152.723 211.762Z" fill="url(#paint20_linear_56_160)"/>
<path d="M186.123 216.662L186.023 216.562C185.923 216.462 185.923 216.362 185.823 216.262C185.723 216.162 185.723 216.162 185.623 216.062C185.523 215.962 185.423 215.862 185.323 215.862C185.223 215.762 185.123 215.762 185.023 215.662C184.923 215.562 184.823 215.562 184.723 215.462C184.623 215.362 184.523 215.362 184.423 215.262C184.323 215.162 184.223 215.162 184.023 215.062C183.923 214.962 183.823 214.962 183.623 214.862C183.523 214.762 183.323 214.762 183.223 214.662C183.123 214.662 182.923 214.562 182.823 214.562C182.623 214.462 182.523 214.462 182.323 214.362C182.223 214.362 182.023 214.262 181.823 214.262C181.623 214.262 181.523 214.162 181.323 214.162C181.123 214.162 181.023 214.062 180.823 214.062C180.623 214.062 180.523 213.962 180.323 213.962C180.123 213.962 179.923 213.862 179.823 213.862C179.623 213.862 179.423 213.762 179.223 213.762C179.023 213.762 178.823 213.662 178.623 213.662C178.423 213.662 178.223 213.562 178.023 213.562C177.823 213.562 177.623 213.462 177.423 213.462C177.223 213.462 177.023 213.362 176.823 213.362C176.623 213.362 176.423 213.262 176.223 213.262C176.023 213.262 175.823 213.162 175.623 213.162C175.423 213.162 175.223 213.062 175.023 213.062C174.823 213.062 174.623 212.962 174.323 212.962C174.123 212.962 173.923 212.862 173.623 212.862C173.423 212.862 173.123 212.762 172.923 212.762C172.723 212.762 172.523 212.762 172.223 212.662C172.023 212.662 171.723 212.662 171.523 212.562C171.323 212.562 171.023 212.562 170.823 212.462C170.623 212.462 170.323 212.462 170.123 212.362C169.923 212.362 169.623 212.362 169.423 212.262C169.223 212.262 168.923 212.262 168.723 212.162C168.523 212.162 168.223 212.162 168.023 212.162C167.823 212.162 167.523 212.162 167.323 212.162C167.123 212.162 166.823 212.162 166.623 212.162C166.423 212.162 166.123 212.162 165.923 212.162C165.723 212.162 165.423 212.162 165.223 212.162C165.023 212.162 164.723 212.162 164.523 212.162C164.323 212.162 164.123 212.162 163.823 212.162C163.623 212.162 163.323 212.162 163.123 212.162C162.923 212.162 162.623 212.162 162.423 212.162C162.223 212.162 162.023 212.162 161.823 212.162C161.623 212.162 161.423 212.162 161.123 212.162C160.923 212.162 160.723 212.162 160.523 212.162C160.323 212.162 160.123 212.162 159.923 212.162C159.723 212.162 159.523 212.162 159.323 212.162C159.123 212.162 158.923 212.162 158.723 212.162C158.523 212.162 158.323 212.162 158.123 212.162C157.923 212.162 157.723 212.162 157.523 212.162C157.323 212.162 157.123 212.162 156.923 212.162C156.723 212.162 156.523 212.162 156.423 212.162C156.223 212.162 156.023 212.162 155.923 212.162C155.723 212.162 155.623 212.162 155.423 212.162C155.223 212.162 155.123 212.162 154.923 212.162C154.723 212.162 154.623 212.162 154.523 212.162C154.323 212.162 154.223 212.162 154.023 212.162C153.923 212.162 153.723 212.162 153.623 212.162C153.523 212.162 153.323 212.162 153.223 212.162C153.123 212.162 152.923 212.162 152.823 212.162C152.723 212.162 152.723 212.162 152.623 212.162C151.323 212.162 150.123 212.762 149.323 213.762C149.723 215.162 150.223 215.562 154.723 216.762C161.623 218.462 173.323 219.462 176.123 219.562C178.923 219.662 181.223 221.162 181.823 224.862C182.323 228.462 179.923 238.962 179.023 242.362C178.123 245.762 176.023 251.462 172.723 252.462C171.323 252.862 170.223 253.062 169.423 252.962C169.323 253.662 169.223 254.062 169.223 254.062C169.223 254.062 169.823 254.162 170.723 254.262C171.023 254.262 171.323 254.362 171.723 254.362C171.823 254.362 171.823 254.362 171.923 254.362C172.323 254.362 172.623 254.462 173.023 254.462H173.123C174.623 254.662 176.123 254.662 176.723 254.462C177.723 254.162 182.623 239.462 185.023 228.462C185.123 227.962 185.223 227.462 185.323 226.962C185.823 224.562 186.223 222.362 186.323 220.662C186.423 219.262 186.423 218.162 186.223 217.462C186.323 216.962 186.223 216.762 186.123 216.662Z" fill="#D3D3D3"/>
<path d="M170.323 184.862C168.523 180.562 165.623 179.762 160.723 179.262C160.723 179.262 155.323 179.362 151.823 183.362C148.423 187.362 145.423 207.062 145.423 210.962C145.423 214.862 145.123 220.362 148.623 221.662C152.123 222.962 147.423 215.762 169.223 210.562C169.223 210.562 166.023 203.962 167.623 197.962C169.023 193.062 172.123 189.162 170.323 184.862Z" fill="url(#paint21_linear_56_160)"/>
<path d="M166.223 176.362C165.923 176.062 162.023 174.762 162.023 174.762C162.023 174.762 161.323 178.062 160.423 179.262C159.523 180.362 158.523 181.462 159.823 182.762C161.223 184.062 165.223 185.462 165.823 184.262C166.423 183.062 165.023 181.962 164.923 180.162C164.823 178.362 166.523 176.562 166.223 176.362Z" fill="#E29D88"/>
<path d="M172.123 167.262C168.923 165.662 165.823 166.262 164.323 168.262C162.823 170.162 161.423 174.862 161.723 176.962C162.023 179.062 163.323 184.362 166.623 183.562C169.923 182.762 171.723 179.662 172.123 178.862C172.523 177.962 173.123 177.462 173.923 176.762C174.723 176.062 175.323 173.562 175.323 173.562C175.623 171.662 175.323 168.862 172.123 167.262Z" fill="#FFC2A9"/>
<path d="M172.123 167.262C168.923 165.662 165.823 166.262 164.323 168.262C162.823 170.162 161.423 174.862 161.723 176.962C162.023 178.862 163.223 183.662 166.023 183.562C163.623 182.162 163.623 179.562 164.023 178.362C164.523 176.962 165.723 176.762 166.623 176.562C167.523 176.362 167.723 174.762 169.323 173.662C170.423 172.962 173.123 174.262 174.823 175.162C175.223 174.262 175.423 173.362 175.423 173.362C175.623 171.662 175.323 168.862 172.123 167.262Z" fill="#EFAB92"/>
<path d="M174.623 166.262C173.123 165.062 171.423 163.862 169.623 164.062C169.623 163.562 169.623 163.162 169.623 162.662C169.123 162.762 168.623 163.062 168.323 163.462C167.923 162.962 167.423 162.562 166.823 162.462C167.023 162.862 167.223 163.362 167.323 163.762C165.923 163.362 165.123 164.262 164.223 165.162C163.423 166.062 162.623 166.662 162.123 167.762C161.223 169.862 160.623 174.262 161.323 175.062C162.023 175.862 163.323 174.562 163.323 174.562C163.023 173.962 163.023 171.462 164.423 170.862C165.823 170.262 165.023 172.962 165.423 173.562C165.723 174.162 166.123 172.162 167.723 172.162C169.323 172.162 170.823 170.662 170.823 170.662C170.923 170.562 172.923 172.362 173.123 172.462C174.023 173.062 175.023 173.562 176.023 173.462C176.923 173.362 177.723 172.962 178.523 172.562C178.023 172.062 177.623 171.462 177.323 170.862C178.623 170.862 179.723 169.762 179.823 168.462C177.723 168.762 176.023 167.462 174.623 166.262Z" fill="#0E0E30"/>
<path d="M155.123 213.762L170.823 216.162L188.123 210.762L188.223 209.762L155.123 212.962V213.762Z" fill="#617375"/>
<path d="M155.123 212.962L170.723 215.062C170.723 215.062 187.723 209.962 188.123 209.962C188.523 209.962 173.223 208.362 173.223 208.362L155.123 212.962Z" fill="#889CA0"/>
<path d="M160.423 212.662L170.623 214.062C176.423 212.362 180.223 211.162 182.823 210.462C179.923 210.162 176.223 209.762 173.223 209.462L160.423 212.662Z" fill="#617375"/>
<path d="M177.423 205.662C176.223 205.462 173.023 201.862 172.623 201.162C172.323 200.462 172.323 197.562 172.323 197.562L167.823 197.962C167.823 197.962 167.823 202.262 168.223 203.662C168.623 205.062 174.823 206.962 175.523 207.162C176.223 207.362 175.523 208.362 176.123 208.862C176.723 209.262 176.823 208.162 177.123 207.762C177.423 207.362 177.923 208.862 178.523 209.462C179.123 210.062 180.523 209.862 181.223 209.462C181.823 209.062 181.523 207.562 181.123 206.762C180.623 205.962 178.523 205.862 177.423 205.662Z" fill="#FFC2A9"/>
<path d="M171.623 203.162C169.723 201.662 169.623 199.462 169.923 197.762L167.823 197.962C167.823 197.962 167.823 202.262 168.223 203.662C168.623 205.062 174.823 206.962 175.523 207.162C176.223 207.362 175.523 208.362 176.123 208.862C176.723 209.262 176.823 208.162 177.123 207.762C177.423 207.362 177.923 208.862 178.523 209.462C179.123 210.062 180.523 209.862 181.223 209.462C181.623 209.162 181.623 208.262 181.423 207.562C178.423 206.462 173.823 204.862 171.623 203.162Z" fill="#EFAB92"/>
<path d="M164.623 205.262C162.923 204.862 150.123 200.962 149.723 199.962C149.323 198.862 151.523 196.162 151.523 196.162L145.823 194.762C145.823 194.762 143.323 199.962 144.323 202.562C145.223 205.162 153.523 206.062 160.023 206.862L163.223 207.662C163.223 207.662 163.923 209.062 165.423 209.462C166.923 209.862 168.123 209.662 168.723 210.162C169.423 210.662 170.123 211.962 170.523 211.562C170.923 211.162 171.723 208.562 171.323 207.062C171.023 205.562 166.223 205.662 164.623 205.262Z" fill="#FFC2A9"/>
<path d="M165.523 207.262C164.923 206.162 150.723 203.562 147.523 202.262C145.123 201.262 146.523 197.062 147.223 195.162L145.723 194.762C145.723 194.762 143.223 199.962 144.223 202.562C145.123 205.162 153.423 206.062 159.923 206.862L163.123 207.662C163.123 207.662 163.823 209.062 165.323 209.462C166.823 209.862 168.023 209.662 168.623 210.162C169.323 210.662 170.023 211.962 170.423 211.562C170.623 211.362 171.023 210.262 171.223 209.062C169.623 208.462 165.923 208.162 165.523 207.262Z" fill="#EFAB92"/>
<path d="M154.523 181.362C148.723 181.762 144.623 194.962 144.623 194.962L151.823 197.962C151.823 197.962 157.923 189.762 157.923 185.662C158.023 181.462 154.523 181.362 154.523 181.362Z" fill="#191F54"/>
<path d="M194.123 194.562L177.523 198.662C176.923 198.762 176.523 199.162 176.323 199.762L170.723 215.162L188.223 209.862L194.723 195.662C195.123 194.862 194.623 194.462 194.123 194.562Z" fill="#617375"/>
<path d="M194.523 194.962L177.923 199.062C177.323 199.162 176.923 199.562 176.723 200.162L171.123 215.562L188.623 210.262L194.823 195.462C194.923 195.162 194.723 194.962 194.523 194.962Z" fill="#889CA0"/>
<path d="M309.523 255.562H36.9233C35.5233 255.562 34.4233 256.662 34.4233 258.062V261.662C34.4233 263.062 35.5233 264.162 36.9233 264.162H309.523C310.923 264.162 312.023 263.062 312.023 261.662V258.062C312.023 256.662 310.923 255.562 309.523 255.562Z" fill="url(#paint22_linear_56_160)"/>
</g>
<g clip-path="url(#clip1_56_160)">
<path d="M48.5081 22.8439H50.3973C50.5884 22.8439 50.7438 23.0018 50.7438 23.196V26.6384C50.7438 26.8326 50.8993 26.9905 51.0904 26.9905H53.9305C54.1216 26.9905 54.277 26.8326 54.277 26.6384V23.196C54.277 23.0018 54.4324 22.8439 54.6235 22.8439H56.4839C56.675 22.8439 56.8304 23.0018 56.8304 23.196V33.3924C56.8304 33.5865 56.675 33.7444 56.4839 33.7444H54.6235C54.4324 33.7444 54.277 33.5865 54.277 33.3924V29.613C54.277 29.4188 54.1216 29.2609 53.9305 29.2609H51.0904C50.8993 29.2609 50.7438 29.4188 50.7438 29.613V33.3924C50.7438 33.5865 50.5884 33.7444 50.3973 33.7444H48.5081C48.317 33.7444 48.1616 33.5865 48.1616 33.3924V23.196C48.1628 23.0018 48.3182 22.8439 48.5081 22.8439Z" fill="#3551A2"/>
<path d="M65.0227 33.555L63.2417 30.0938C63.1819 29.978 63.0645 29.9054 62.9355 29.9054H62.2505C62.0594 29.9054 61.904 30.0634 61.904 30.2575V33.3924C61.904 33.5865 61.7486 33.7444 61.5575 33.7444H59.6683C59.4772 33.7444 59.3218 33.5865 59.3218 33.3924V23.196C59.3218 23.0018 59.4772 22.8439 59.6683 22.8439H63.259C65.5511 22.8439 67.4553 23.6346 67.4553 26.2723C67.4553 27.7216 66.8497 28.7006 65.9069 29.2633C65.7457 29.3592 65.6927 29.5709 65.7837 29.7358L67.7132 33.2192C67.8432 33.4532 67.6763 33.7433 67.4115 33.7433H65.3289C65.2 33.7444 65.0826 33.6708 65.0227 33.555ZM61.904 27.4888C61.904 27.683 62.0594 27.8409 62.2505 27.8409H63.0575C64.2836 27.8409 64.9318 27.2993 64.9318 26.2735C64.9318 25.2476 64.2825 24.9108 63.0575 24.9108H62.2505C62.0594 24.9108 61.904 25.0687 61.904 25.2628V27.4888Z" fill="#3551A2"/>
<path d="M69.5317 23.196C69.5317 23.0018 69.6872 22.8439 69.8783 22.8439H72.6182C75.8912 22.8439 78.0543 24.4405 78.0543 28.2351C78.0543 32.0296 75.8912 33.7433 72.7621 33.7433H69.8783C69.6872 33.7433 69.5317 33.5854 69.5317 33.3912V23.196ZM72.4593 31.6343C74.1896 31.6343 75.4157 30.8283 75.4157 28.2351C75.4157 25.6418 74.1896 24.9236 72.4593 24.9236C72.2682 24.9236 72.1128 25.0815 72.1128 25.2757V31.2822C72.1128 31.4764 72.2682 31.6343 72.4593 31.6343Z" fill="#3551A2"/>
<path d="M80.3905 22.8439H86.5772C86.7683 22.8439 86.9238 23.0018 86.9238 23.196V24.6616C86.9238 24.8558 86.7683 25.0137 86.5772 25.0137H82.9715C82.7804 25.0137 82.625 25.1716 82.625 25.3658V26.684C82.625 26.8782 82.7804 27.0361 82.9715 27.0361H86.5772C86.7683 27.0361 86.9238 27.194 86.9238 27.3882V28.8831C86.9238 29.0773 86.7683 29.2352 86.5772 29.2352H82.9715C82.7804 29.2352 82.625 29.3931 82.625 29.5873V31.1991C82.625 31.3933 82.7804 31.5512 82.9715 31.5512H86.5772C86.7683 31.5512 86.9238 31.7091 86.9238 31.9033V33.3982C86.9238 33.5924 86.7683 33.7503 86.5772 33.7503H80.3905C80.1994 33.7503 80.0439 33.5924 80.0439 33.3982V23.196C80.0439 23.0018 80.1994 22.8439 80.3905 22.8439Z" fill="#3551A2"/>
<path d="M43.5754 30.9617C43.5754 26.091 40.459 21.9631 36.143 20.5161C41.129 24.1598 40.1977 34.8837 34.042 35.7739C33.6299 35.8885 33.1958 35.9505 32.748 35.9505C30.0368 35.9505 27.838 33.7175 27.838 30.9617C27.838 28.662 29.3703 26.7261 31.454 26.1495C25.2984 27.0396 24.3682 37.7636 29.3542 41.4072C30.4225 41.7652 31.5622 41.9617 32.748 41.9617C38.7287 41.9617 43.5754 37.0372 43.5754 30.9617Z" fill="url(#paint23_linear_56_160)"/>
<path d="M31.4551 26.1495C31.8672 26.0348 32.3013 25.9728 32.7491 25.9728C35.4602 25.9728 37.6591 28.2058 37.6591 30.9617C37.6591 33.2613 36.1268 35.1972 34.0431 35.7739C40.1987 34.8837 41.1301 24.1598 36.1441 20.5161C35.0757 20.1582 33.9349 19.9617 32.7491 19.9617C26.7696 19.9617 21.9229 24.8862 21.9229 30.9617C21.9229 35.8324 25.0393 39.9603 29.3552 41.4072C24.3692 37.7636 25.3006 27.0396 31.4551 26.1495Z" fill="url(#paint24_linear_56_160)"/>
<path d="M32.7491 33.0905C33.9062 33.0905 34.8443 32.1374 34.8443 30.9616C34.8443 29.7859 33.9062 28.8328 32.7491 28.8328C31.5919 28.8328 30.6538 29.7859 30.6538 30.9616C30.6538 32.1374 31.5919 33.0905 32.7491 33.0905Z" fill="url(#paint25_linear_56_160)"/>
<path d="M49.2797 36.5213H48.3887V36.1949H50.5576V36.5213H49.6619V39.1707H49.2797V36.5213Z" fill="#3551A2"/>
<path d="M52.6861 38.173C52.6953 38.6982 53.0245 38.9146 53.4079 38.9146C53.6819 38.9146 53.8465 38.8655 53.9904 38.8046L54.056 39.083C53.9213 39.145 53.6911 39.2152 53.3561 39.2152C52.7091 39.2152 52.3223 38.7824 52.3223 38.1379C52.3223 37.4934 52.6964 36.9857 53.3089 36.9857C53.995 36.9857 54.1781 37.5998 54.1781 37.9928C54.1781 38.0724 54.1688 38.1344 54.1654 38.1741H52.6861V38.173ZM53.8074 37.8946C53.812 37.6478 53.7072 37.2629 53.2766 37.2629C52.8898 37.2629 52.7206 37.6256 52.6895 37.8946H53.8074Z" fill="#3551A2"/>
<path d="M58.0627 39.0912C57.9625 39.1439 57.7415 39.2152 57.4583 39.2152C56.8239 39.2152 56.4106 38.7778 56.4106 38.1239C56.4106 37.4665 56.8539 36.9893 57.5412 36.9893C57.7668 36.9893 57.9671 37.0466 58.0719 37.0992L57.9855 37.3998C57.8946 37.3472 57.7507 37.2981 57.5423 37.2981C57.0599 37.2981 56.7986 37.6607 56.7986 38.1063C56.7986 38.6011 57.1117 38.9053 57.5285 38.9053C57.7461 38.9053 57.8888 38.8479 57.9982 38.7988L58.0627 39.0912Z" fill="#3551A2"/>
<path d="M60.4229 36.0359H60.8051V37.3694H60.8143C60.8753 37.2594 60.9708 37.1623 61.0883 37.0957C61.2011 37.029 61.3358 36.9857 61.4797 36.9857C61.7617 36.9857 62.2142 37.1623 62.2142 37.8992V39.1707H61.832V37.9437C61.832 37.5986 61.7053 37.3074 61.345 37.3074C61.0975 37.3074 60.9018 37.484 60.8327 37.6957C60.8108 37.7484 60.8062 37.8057 60.8062 37.8805V39.1696H60.424V36.0359H60.4229Z" fill="#3551A2"/>
<path d="M64.7463 37.6126C64.7463 37.3916 64.7417 37.2114 64.729 37.0336H65.0675L65.0893 37.3869H65.0986C65.2033 37.1833 65.4462 36.9845 65.7939 36.9845C66.0852 36.9845 66.5376 37.1611 66.5376 37.8945V39.1707H66.1554V37.939C66.1554 37.5951 66.0288 37.3073 65.6684 37.3073C65.4163 37.3073 65.2206 37.4886 65.1561 37.705C65.1388 37.7542 65.1296 37.8197 65.1296 37.8863V39.1719H64.7474V37.6126H64.7463Z" fill="#3551A2"/>
<path d="M70.9736 38.0853C70.9736 38.876 70.4348 39.2199 69.926 39.2199C69.3561 39.2199 68.9175 38.7964 68.9175 38.1203C68.9175 37.4045 69.378 36.9857 69.9605 36.9857C70.5661 36.9857 70.9736 37.4314 70.9736 38.0853ZM69.3054 38.1075C69.3054 38.5754 69.5702 38.9286 69.9444 38.9286C70.3093 38.9286 70.5833 38.58 70.5833 38.0981C70.5833 37.7355 70.4049 37.277 69.9536 37.277C69.5023 37.277 69.3054 37.7004 69.3054 38.1075Z" fill="#3551A2"/>
<path d="M73.3682 36.0359H73.7504V39.1707H73.3682V36.0359Z" fill="#3551A2"/>
<path d="M78.2104 38.0853C78.2104 38.876 77.6716 39.2199 77.1628 39.2199C76.5929 39.2199 76.1543 38.7964 76.1543 38.1203C76.1543 37.4045 76.6148 36.9857 77.1973 36.9857C77.8017 36.9857 78.2104 37.4314 78.2104 38.0853ZM76.5411 38.1075C76.5411 38.5754 76.8059 38.9286 77.1801 38.9286C77.545 38.9286 77.819 38.58 77.819 38.0981C77.819 37.7355 77.6406 37.277 77.1893 37.277C76.738 37.277 76.5411 37.7004 76.5411 38.1075Z" fill="#3551A2"/>
<path d="M82.4167 37.0336C82.4075 37.188 82.3994 37.36 82.3994 37.6208V38.8619C82.3994 39.352 82.3038 39.6526 82.1001 39.8374C81.8963 40.0316 81.6004 40.0936 81.3356 40.0936C81.0835 40.0936 80.8049 40.0316 80.6357 39.917L80.7312 39.621C80.8705 39.7088 81.0881 39.7883 81.3483 39.7883C81.7397 39.7883 82.0264 39.5813 82.0264 39.042V38.8034H82.0172C81.8998 39.0023 81.6741 39.1613 81.3483 39.1613C80.8268 39.1613 80.4526 38.711 80.4526 38.1191C80.4526 37.3951 80.9177 36.9845 81.4001 36.9845C81.7651 36.9845 81.9654 37.1787 82.0563 37.3553H82.0655L82.0828 37.0325H82.4167V37.0336ZM82.0206 37.877C82.0206 37.8103 82.016 37.753 81.9988 37.7004C81.9297 37.4758 81.742 37.2898 81.4646 37.2898C81.0996 37.2898 80.8383 37.6033 80.8383 38.0981C80.8383 38.518 81.0467 38.8666 81.46 38.8666C81.6948 38.8666 81.9078 38.7168 81.9907 38.4689C82.0126 38.4022 82.0206 38.3273 82.0206 38.2618V37.877Z" fill="#3551A2"/>
<path d="M85.0846 37.0337L85.5451 38.297C85.5934 38.4385 85.6452 38.6058 85.6798 38.7345H85.689C85.7281 38.607 85.7719 38.4432 85.8237 38.2888L86.2404 37.0349H86.6445L86.0712 38.5578C85.7972 39.2912 85.6107 39.6667 85.3494 39.896C85.1629 40.0632 84.9752 40.1299 84.8797 40.1475L84.7841 39.8211C84.8797 39.7907 85.0051 39.7287 85.1191 39.6316C85.2239 39.5474 85.354 39.3977 85.4403 39.1988C85.4576 39.1591 85.4702 39.1286 85.4702 39.1064C85.4702 39.0842 85.461 39.0538 85.4438 39.0047L84.6655 37.0349H85.0846V37.0337Z" fill="#3551A2"/>
</g>
<defs>
<linearGradient id="paint0_linear_56_160" x1="31.298" y1="178.307" x2="289.735" y2="178.307" gradientUnits="userSpaceOnUse">
<stop stop-color="#FFF0DB"/>
<stop offset="0.2594" stop-color="#FFECDD"/>
<stop offset="0.5169" stop-color="#FFE0E1"/>
<stop offset="0.7729" stop-color="#FFCCE9"/>
<stop offset="1" stop-color="#FFB4F2"/>
</linearGradient>
<linearGradient id="paint1_linear_56_160" x1="55.0683" y1="206.152" x2="29.0563" y2="181.422" gradientUnits="userSpaceOnUse">
<stop stop-color="#006838"/>
<stop offset="1" stop-color="#47E51D"/>
</linearGradient>
<linearGradient id="paint2_linear_56_160" x1="72.1899" y1="213.92" x2="91.795" y2="197.39" gradientUnits="userSpaceOnUse">
<stop stop-color="#006838"/>
<stop offset="1" stop-color="#47E51D"/>
</linearGradient>
<linearGradient id="paint3_linear_56_160" x1="77.3966" y1="198.044" x2="91.8316" y2="156.343" gradientUnits="userSpaceOnUse">
<stop stop-color="#006838"/>
<stop offset="1" stop-color="#47E51D"/>
</linearGradient>
<linearGradient id="paint4_linear_56_160" x1="61.7921" y1="199.908" x2="51.413" y2="173.255" gradientUnits="userSpaceOnUse">
<stop stop-color="#006838"/>
<stop offset="1" stop-color="#47E51D"/>
</linearGradient>
<linearGradient id="paint5_linear_56_160" x1="62.9056" y1="187.492" x2="62.9115" y2="187.402" gradientUnits="userSpaceOnUse">
<stop stop-color="#006838"/>
<stop offset="1" stop-color="#47E51D"/>
</linearGradient>
<linearGradient id="paint6_linear_56_160" x1="65.133" y1="211.659" x2="67.3114" y2="178.471" gradientUnits="userSpaceOnUse">
<stop stop-color="#006838"/>
<stop offset="1" stop-color="#47E51D"/>
</linearGradient>
<linearGradient id="paint7_linear_56_160" x1="70.9368" y1="173.953" x2="70.9776" y2="173.331" gradientUnits="userSpaceOnUse">
<stop stop-color="#006838"/>
<stop offset="1" stop-color="#47E51D"/>
</linearGradient>
<linearGradient id="paint8_linear_56_160" x1="49.1444" y1="238.534" x2="83.307" y2="238.534" gradientUnits="userSpaceOnUse">
<stop stop-color="#700D2A"/>
<stop offset="0.5645" stop-color="#DD4536"/>
<stop offset="1" stop-color="#F7A458"/>
</linearGradient>
<linearGradient id="paint9_linear_56_160" x1="44.7364" y1="217.728" x2="87.7152" y2="217.728" gradientUnits="userSpaceOnUse">
<stop stop-color="#700D2A"/>
<stop offset="0.5645" stop-color="#DD4536"/>
<stop offset="1" stop-color="#F7A458"/>
</linearGradient>
<linearGradient id="paint10_linear_56_160" x1="253.517" y1="220.735" x2="303.796" y2="220.735" gradientUnits="userSpaceOnUse">
<stop stop-color="#700D2A"/>
<stop offset="0.5645" stop-color="#DD4536"/>
<stop offset="1" stop-color="#F7A458"/>
</linearGradient>
<linearGradient id="paint11_linear_56_160" x1="175.724" y1="86.3005" x2="175.724" y2="213.475" gradientUnits="userSpaceOnUse">
<stop stop-color="#27AAE1"/>
<stop offset="1" stop-color="#0D1B5A"/>
</linearGradient>
<linearGradient id="paint12_linear_56_160" x1="90.1243" y1="142.087" x2="261.325" y2="142.087" gradientUnits="userSpaceOnUse">
<stop stop-color="#E4F2FF"/>
<stop offset="1" stop-color="#91D0C5"/>
</linearGradient>
<linearGradient id="paint13_linear_56_160" x1="106.636" y1="161.752" x2="106.636" y2="258.421" gradientUnits="userSpaceOnUse">
<stop stop-color="#27AAE1"/>
<stop offset="1" stop-color="#0D1B5A"/>
</linearGradient>
<linearGradient id="paint14_linear_56_160" x1="83.0261" y1="205.802" x2="130.246" y2="205.802" gradientUnits="userSpaceOnUse">
<stop stop-color="#E4F2FF"/>
<stop offset="1" stop-color="#91D0C5"/>
</linearGradient>
<linearGradient id="paint15_linear_56_160" x1="219.773" y1="216.223" x2="247.43" y2="216.223" gradientUnits="userSpaceOnUse">
<stop stop-color="#23538C"/>
<stop offset="1" stop-color="#230482"/>
</linearGradient>
<linearGradient id="paint16_linear_56_160" x1="223.183" y1="161.096" x2="248.866" y2="161.096" gradientUnits="userSpaceOnUse">
<stop stop-color="#E4F2FF"/>
<stop offset="1" stop-color="#91D0C5"/>
</linearGradient>
<linearGradient id="paint17_linear_56_160" x1="216.001" y1="156.712" x2="223.093" y2="156.712" gradientUnits="userSpaceOnUse">
<stop stop-color="#23538C"/>
<stop offset="1" stop-color="#230482"/>
</linearGradient>
<linearGradient id="paint18_linear_56_160" x1="228.892" y1="151.692" x2="249.884" y2="151.692" gradientUnits="userSpaceOnUse">
<stop stop-color="#23538C"/>
<stop offset="1" stop-color="#230482"/>
</linearGradient>
<linearGradient id="paint19_linear_56_160" x1="153.395" y1="230.594" x2="198.873" y2="230.594" gradientUnits="userSpaceOnUse">
<stop stop-color="#23538C"/>
<stop offset="1" stop-color="#230482"/>
</linearGradient>
<linearGradient id="paint20_linear_56_160" x1="147.331" y1="233.032" x2="186.46" y2="233.032" gradientUnits="userSpaceOnUse">
<stop stop-color="#23538C"/>
<stop offset="1" stop-color="#230482"/>
</linearGradient>
<linearGradient id="paint21_linear_56_160" x1="145.504" y1="200.587" x2="170.889" y2="200.587" gradientUnits="userSpaceOnUse">
<stop stop-color="#91D01D"/>
<stop offset="1" stop-color="#F9ED32"/>
</linearGradient>
<linearGradient id="paint22_linear_56_160" x1="173.196" y1="263.805" x2="173.196" y2="255.843" gradientUnits="userSpaceOnUse">
<stop stop-color="#700D2A"/>
<stop offset="0.5645" stop-color="#DD4536"/>
<stop offset="1" stop-color="#F7A458"/>
</linearGradient>
<linearGradient id="paint23_linear_56_160" x1="29.4811" y1="26.6649" x2="40.8511" y2="38.3069" gradientUnits="userSpaceOnUse">
<stop stop-color="#004595"/>
<stop offset="1" stop-color="#57C2E6"/>
</linearGradient>
<linearGradient id="paint24_linear_56_160" x1="23.7578" y1="24.6161" x2="36.7305" y2="33.9425" gradientUnits="userSpaceOnUse">
<stop stop-color="#57C2E6"/>
<stop offset="1" stop-color="#004595"/>
</linearGradient>
<linearGradient id="paint25_linear_56_160" x1="30.6539" y1="30.9617" x2="34.8444" y2="30.9617" gradientUnits="userSpaceOnUse">
<stop stop-color="#57C2E6"/>
<stop offset="1" stop-color="#004595"/>
</linearGradient>
<clipPath id="clip0_56_160">
<rect width="286.2" height="252.7" fill="white" transform="translate(25.8232 51.9617)"/>
</clipPath>
<clipPath id="clip1_56_160">
<rect width="65" height="22" fill="white" transform="translate(21.9229 19.9617)"/>
</clipPath>
</defs>
</svg>
